<svg width="100px" height="100px" viewBox="0 0 48 48" xmlns="http://www.w3.org/2000/svg" fill="#000000">
    <g id="SVGRepo_bgCarrier" stroke-width="0"></g>
    <g id="SVGRepo_tracerCarrier" stroke-linecap="round" stroke-linejoin="round"></g>
    <g id="SVGRepo_iconCarrier">
        <path d="M0 0h48v48H0z" fill="none"></path>
        <g id="Shopicon">
            <circle cx="20" cy="18" r="2"></circle>
            <circle cx="28" cy="18" r="2"></circle>
            <path d="M24,32c4.411,0,8-3.589,8-8h-4c0,2.206-1.794,4-4,4s-4-1.794-4-4h-4C16,28.411,19.589,32,24,32z">
            </path>
            <path
                d="M24,42c9.941,0,18-8.059,18-18S33.941,6,24,6C14.059,6,6,14.059,6,24S14.059,42,24,42z M24,10c7.72,0,14,6.28,14,14 c0,7.719-6.28,14-14,14c-7.72,0-14-6.281-14-14C10,16.28,16.28,10,24,10z">
            </path>
        </g>
    </g>
</svg>